<svg aria-roledescription="er" role="graphics-document document" viewBox="0 0 768.1896362304688 914" style="max-width: 768.1896362304688px;" xmlns="http://www.w3.org/2000/svg" width="100%" id="export-svg"><style xmlns="http://www.w3.org/1999/xhtml">@import url("https://cdnjs.cloudflare.com/ajax/libs/font-awesome/6.2.0/css/all.min.css"); p {margin: 0;}</style><style>#export-svg{font-family:arial,sans-serif;font-size:14px;fill:#333;}@keyframes edge-animation-frame{from{stroke-dashoffset:0;}}@keyframes dash{to{stroke-dashoffset:0;}}#export-svg .edge-animation-slow{stroke-dasharray:9,5!important;stroke-dashoffset:900;animation:dash 50s linear infinite;stroke-linecap:round;}#export-svg .edge-animation-fast{stroke-dasharray:9,5!important;stroke-dashoffset:900;animation:dash 20s linear infinite;stroke-linecap:round;}#export-svg .error-icon{fill:#ffffff;}#export-svg .error-text{fill:#000000;stroke:#000000;}#export-svg .edge-thickness-normal{stroke-width:2px;}#export-svg .edge-thickness-thick{stroke-width:3.5px;}#export-svg .edge-pattern-solid{stroke-dasharray:0;}#export-svg .edge-thickness-invisible{stroke-width:0;fill:none;}#export-svg .edge-pattern-dashed{stroke-dasharray:3;}#export-svg .edge-pattern-dotted{stroke-dasharray:2;}#export-svg .marker{fill:#000000;stroke:#000000;}#export-svg .marker.cross{stroke:#000000;}#export-svg svg{font-family:arial,sans-serif;font-size:14px;}#export-svg p{margin:0;}#export-svg .entityBox{fill:#ffffff;stroke:#000000;}#export-svg .attributeBoxOdd{fill:#ffffff;stroke:#000000;}#export-svg .attributeBoxEven{fill:#f2f2f2;stroke:#000000;}#export-svg .relationshipLabelBox{fill:#ffffff;opacity:0.7;background-color:#ffffff;}#export-svg .relationshipLabelBox rect{opacity:0.5;}#export-svg .relationshipLine{stroke:#000000;}#export-svg .entityTitleText{text-anchor:middle;font-size:18px;fill:#333;}#export-svg #MD_PARENT_START{fill:#f5f5f5!important;stroke:#000000!important;stroke-width:1;}#export-svg #MD_PARENT_END{fill:#f5f5f5!important;stroke:#000000!important;stroke-width:1;}#export-svg .node .neo-node{stroke:#000000;}#export-svg [data-look="neo"].node rect,#export-svg [data-look="neo"].cluster rect,#export-svg [data-look="neo"].node polygon{stroke:url(#export-svg-gradient);filter:drop-shadow( 0px 1px 2px rgba(0, 0, 0, 0.25));}#export-svg [data-look="neo"].node path{stroke:url(#export-svg-gradient);}#export-svg [data-look="neo"].node .outer-path{filter:drop-shadow( 0px 1px 2px rgba(0, 0, 0, 0.25));}#export-svg [data-look="neo"].node .neo-line path{stroke:hsl(0, 0%, 70%);filter:none;}#export-svg [data-look="neo"].node circle{stroke:url(#export-svg-gradient);filter:drop-shadow( 0px 1px 2px rgba(0, 0, 0, 0.25));}#export-svg [data-look="neo"].node circle .state-start{fill:#000000;}#export-svg [data-look="neo"].statediagram-cluster rect{fill:#ffffff;stroke:url(#export-svg-gradient);stroke-width:1px;}#export-svg [data-look="neo"].icon-shape .icon{fill:url(#export-svg-gradient);filter:drop-shadow( 0px 1px 2px rgba(0, 0, 0, 0.25));}#export-svg [data-look="neo"].icon-shape .icon-neo path{stroke:url(#export-svg-gradient);filter:drop-shadow( 0px 1px 2px rgba(0, 0, 0, 0.25));}#export-svg :root{--mermaid-font-family:"trebuchet ms",verdana,arial,sans-serif;}</style><g/><defs><marker orient="auto" markerHeight="240" markerWidth="190" refY="7" refX="0" id="MD_PARENT_START"><path d="M 18,7 L9,13 L1,7 L9,1 Z"/></marker></defs><defs><marker orient="auto" markerHeight="28" markerWidth="20" refY="7" refX="19" id="MD_PARENT_END"><path d="M 18,7 L9,13 L1,7 L9,1 Z"/></marker></defs><defs><marker orient="auto" markerHeight="18" markerWidth="18" refY="9" refX="0" id="ONLY_ONE_START"><path d="M9,0 L9,18 M15,0 L15,18" fill="none" stroke="gray"/></marker></defs><defs><marker orient="auto" markerHeight="18" markerWidth="18" refY="9" refX="18" id="ONLY_ONE_END"><path d="M3,0 L3,18 M9,0 L9,18" fill="none" stroke="gray"/></marker></defs><defs><marker orient="auto" markerHeight="18" markerWidth="30" refY="9" refX="0" id="ZERO_OR_ONE_START"><circle r="6" cy="9" cx="21" fill="white" stroke="gray"/><path d="M9,0 L9,18" fill="none" stroke="gray"/></marker></defs><defs><marker orient="auto" markerHeight="18" markerWidth="30" refY="9" refX="30" id="ZERO_OR_ONE_END"><circle r="6" cy="9" cx="9" fill="white" stroke="gray"/><path d="M21,0 L21,18" fill="none" stroke="gray"/></marker></defs><defs><marker orient="auto" markerHeight="36" markerWidth="45" refY="18" refX="18" id="ONE_OR_MORE_START"><path d="M0,18 Q 18,0 36,18 Q 18,36 0,18 M42,9 L42,27" fill="none" stroke="gray"/></marker></defs><defs><marker orient="auto" markerHeight="36" markerWidth="45" refY="18" refX="27" id="ONE_OR_MORE_END"><path d="M3,9 L3,27 M9,18 Q27,0 45,18 Q27,36 9,18" fill="none" stroke="gray"/></marker></defs><defs><marker orient="auto" markerHeight="36" markerWidth="57" refY="18" refX="18" id="ZERO_OR_MORE_START"><circle r="6" cy="18" cx="48" fill="white" stroke="gray"/><path d="M0,18 Q18,0 36,18 Q18,36 0,18" fill="none" stroke="gray"/></marker></defs><defs><marker orient="auto" markerHeight="36" markerWidth="57" refY="18" refX="39" id="ZERO_OR_MORE_END"><circle r="6" cy="18" cx="9" fill="white" stroke="gray"/><path d="M21,18 Q39,0 57,18 Q39,36 21,18" fill="none" stroke="gray"/></marker></defs><path marker-start="url(#ONE_OR_MORE_START)" marker-end="url(#ZERO_OR_MORE_END)" style="stroke: gray; fill: none;" d="M83.174,623L83.174,631.333C83.174,639.667,83.174,656.333,136.014,683.935C188.854,711.536,294.534,750.072,347.374,769.34L400.214,788.608" class="er relationshipLine"/><path marker-start="url(#ONE_OR_MORE_START)" marker-end="url(#ZERO_OR_MORE_END)" style="stroke: gray; fill: none;" d="M483.174,602L483.174,613.833C483.174,625.667,483.174,649.333,481.427,669.5C479.679,689.667,476.185,706.333,474.438,714.667L472.691,723" class="er relationshipLine"/><path marker-start="url(#ZERO_OR_MORE_START)" marker-end="url(#ONLY_ONE_END)" style="stroke: gray; fill: none;" d="M383.174,416.833L424.84,428.361C466.507,439.889,549.84,462.944,591.507,490.056C633.174,517.167,633.174,548.333,633.174,579.5C633.174,610.667,633.174,641.833,612.531,673.095C591.888,704.356,550.602,735.712,529.959,751.391L509.316,767.069" class="er relationshipLine"/><path marker-start="url(#ZERO_OR_MORE_START)" marker-end="url(#ONLY_ONE_END)" style="stroke: gray; fill: none;" d="M283.174,419.6L249.84,430.667C216.507,441.733,149.84,463.867,116.507,483.267C83.174,502.667,83.174,519.333,83.174,527.667L83.174,536" class="er relationshipLine"/><path marker-start="url(#ZERO_OR_MORE_START)" marker-end="url(#ZERO_OR_MORE_END)" style="stroke: gray; fill: none;" d="M358.174,251.944L329.007,263.287C299.84,274.63,241.507,297.315,212.34,322.491C183.174,347.667,183.174,375.333,183.174,403C183.174,430.667,183.174,458.333,174.261,480.5C165.348,502.667,147.523,519.333,138.61,527.667L129.698,536" class="er relationshipLine"/><path marker-start="url(#ZERO_OR_MORE_START)" marker-end="url(#ZERO_OR_MORE_END)" style="stroke: gray; fill: none;" d="M458.174,245.962L504.007,258.301C549.84,270.641,641.507,295.321,687.34,321.494C733.174,347.667,733.174,375.333,733.174,403C733.174,430.667,733.174,458.333,733.174,487.75C733.174,517.167,733.174,548.333,733.174,579.5C733.174,610.667,733.174,641.833,695.864,675.575C658.555,709.317,583.935,745.633,546.626,763.792L509.316,781.95" class="er relationshipLine"/><path marker-start="url(#ZERO_OR_MORE_START)" marker-end="url(#ZERO_OR_MORE_END)" style="stroke: gray; fill: none;" d="M376.031,270L368.888,278.333C361.745,286.667,347.459,303.333,340.317,320C333.174,336.667,333.174,353.333,333.174,361.667L333.174,370" class="er relationshipLine"/><path marker-start="url(#ZERO_OR_MORE_START)" marker-end="url(#ZERO_OR_MORE_END)" style="stroke: gray; fill: none;" d="M440.317,270L447.459,278.333C454.602,286.667,468.888,303.333,476.031,325.5C483.174,347.667,483.174,375.333,483.174,403C483.174,430.667,483.174,458.333,483.174,484C483.174,509.667,483.174,533.333,483.174,545.167L483.174,557" class="er relationshipLine"/><path marker-start="url(#ZERO_OR_MORE_START)" marker-end="url(#ONLY_ONE_END)" style="stroke: gray; fill: none;" d="M467.264,95L457.416,103.333C447.568,111.667,427.871,128.333,418.022,145C408.174,161.667,408.174,178.333,408.174,186.667L408.174,195" class="er relationshipLine"/><path marker-start="url(#ONE_OR_MORE_START)" marker-end="url(#ONE_OR_MORE_END)" style="stroke: gray; fill: none;" d="M555.9,95L565.749,103.333C575.597,111.667,595.294,128.333,605.143,145.75C614.991,163.167,614.991,181.333,614.991,190.417L614.991,199.5" class="er relationshipLine"/><g transform="translate(20,536 )" id="entity-user-dad033c9-7a45-5f6a-ab5a-b5def405b2a6"><rect height="87" width="126.34751892089844" y="0" x="0" class="er entityBox"/><text transform="translate(63.17375946044922,12)" style="dominant-baseline: middle; text-anchor: middle; font-size: 12px;" y="0" x="0" id="text-entity-user-dad033c9-7a45-5f6a-ab5a-b5def405b2a6" class="er entityLabel">user</text><rect height="21" width="35.26939392089844" y="24" x="0" class="er attributeBoxOdd"/><text transform="translate(5,34.5)" style="dominant-baseline: middle; font-size: 10.2px;" y="0" x="0" id="text-entity-user-dad033c9-7a45-5f6a-ab5a-b5def405b2a6-attr-1-type" class="er entityLabel">string</text><rect height="21" width="91.078125" y="24" x="35.26939392089844" class="er attributeBoxOdd"/><text transform="translate(40.26939392089844,34.5)" style="dominant-baseline: middle; font-size: 10.2px;" y="0" x="0" id="text-entity-user-dad033c9-7a45-5f6a-ab5a-b5def405b2a6-attr-1-name" class="er entityLabel">username</text><rect height="21" width="35.26939392089844" y="45" x="0" class="er attributeBoxEven"/><text transform="translate(5,55.5)" style="dominant-baseline: middle; font-size: 10.2px;" y="0" x="0" id="text-entity-user-dad033c9-7a45-5f6a-ab5a-b5def405b2a6-attr-2-type" class="er entityLabel">string</text><rect height="21" width="91.078125" y="45" x="35.26939392089844" class="er attributeBoxEven"/><text transform="translate(40.26939392089844,55.5)" style="dominant-baseline: middle; font-size: 10.2px;" y="0" x="0" id="text-entity-user-dad033c9-7a45-5f6a-ab5a-b5def405b2a6-attr-2-name" class="er entityLabel">profile_picture_url</text><rect height="21" width="35.26939392089844" y="66" x="0" class="er attributeBoxOdd"/><text transform="translate(5,76.5)" style="dominant-baseline: middle; font-size: 10.2px;" y="0" x="0" id="text-entity-user-dad033c9-7a45-5f6a-ab5a-b5def405b2a6-attr-3-type" class="er entityLabel">string</text><rect height="21" width="91.078125" y="66" x="35.26939392089844" class="er attributeBoxOdd"/><text transform="translate(40.26939392089844,76.5)" style="dominant-baseline: middle; font-size: 10.2px;" y="0" x="0" id="text-entity-user-dad033c9-7a45-5f6a-ab5a-b5def405b2a6-attr-3-name" class="er entityLabel">email</text></g><g transform="translate(400.2138214111328,723 )" id="entity-issue-5f9caad7-8f1e-5d51-8ee5-025a68036f45"><rect height="171" width="109.10250854492188" y="0" x="0" class="er entityBox"/><text transform="translate(54.55125427246094,12)" style="dominant-baseline: middle; text-anchor: middle; font-size: 12px;" y="0" x="0" id="text-entity-issue-5f9caad7-8f1e-5d51-8ee5-025a68036f45" class="er entityLabel">issue</text><rect height="21" width="49.44877624511719" y="24" x="0" class="er attributeBoxOdd"/><text transform="translate(5,34.5)" style="dominant-baseline: middle; font-size: 10.2px;" y="0" x="0" id="text-entity-issue-5f9caad7-8f1e-5d51-8ee5-025a68036f45-attr-1-type" class="er entityLabel">int</text><rect height="21" width="59.65373229980469" y="24" x="49.44877624511719" class="er attributeBoxOdd"/><text transform="translate(54.44877624511719,34.5)" style="dominant-baseline: middle; font-size: 10.2px;" y="0" x="0" id="text-entity-issue-5f9caad7-8f1e-5d51-8ee5-025a68036f45-attr-1-name" class="er entityLabel">number</text><rect height="21" width="49.44877624511719" y="45" x="0" class="er attributeBoxEven"/><text transform="translate(5,55.5)" style="dominant-baseline: middle; font-size: 10.2px;" y="0" x="0" id="text-entity-issue-5f9caad7-8f1e-5d51-8ee5-025a68036f45-attr-2-type" class="er entityLabel">string</text><rect height="21" width="59.65373229980469" y="45" x="49.44877624511719" class="er attributeBoxEven"/><text transform="translate(54.44877624511719,55.5)" style="dominant-baseline: middle; font-size: 10.2px;" y="0" x="0" id="text-entity-issue-5f9caad7-8f1e-5d51-8ee5-025a68036f45-attr-2-name" class="er entityLabel">title</text><rect height="21" width="49.44877624511719" y="66" x="0" class="er attributeBoxOdd"/><text transform="translate(5,76.5)" style="dominant-baseline: middle; font-size: 10.2px;" y="0" x="0" id="text-entity-issue-5f9caad7-8f1e-5d51-8ee5-025a68036f45-attr-3-type" class="er entityLabel">bool</text><rect height="21" width="59.65373229980469" y="66" x="49.44877624511719" class="er attributeBoxOdd"/><text transform="translate(54.44877624511719,76.5)" style="dominant-baseline: middle; font-size: 10.2px;" y="0" x="0" id="text-entity-issue-5f9caad7-8f1e-5d51-8ee5-025a68036f45-attr-3-name" class="er entityLabel">open</text><rect height="21" width="49.44877624511719" y="87" x="0" class="er attributeBoxEven"/><text transform="translate(5,97.5)" style="dominant-baseline: middle; font-size: 10.2px;" y="0" x="0" id="text-entity-issue-5f9caad7-8f1e-5d51-8ee5-025a68036f45-attr-4-type" class="er entityLabel">string</text><rect height="21" width="59.65373229980469" y="87" x="49.44877624511719" class="er attributeBoxEven"/><text transform="translate(54.44877624511719,97.5)" style="dominant-baseline: middle; font-size: 10.2px;" y="0" x="0" id="text-entity-issue-5f9caad7-8f1e-5d51-8ee5-025a68036f45-attr-4-name" class="er entityLabel">description</text><rect height="21" width="49.44877624511719" y="108" x="0" class="er attributeBoxOdd"/><text transform="translate(5,118.5)" style="dominant-baseline: middle; font-size: 10.2px;" y="0" x="0" id="text-entity-issue-5f9caad7-8f1e-5d51-8ee5-025a68036f45-attr-5-type" class="er entityLabel">datetime</text><rect height="21" width="59.65373229980469" y="108" x="49.44877624511719" class="er attributeBoxOdd"/><text transform="translate(54.44877624511719,118.5)" style="dominant-baseline: middle; font-size: 10.2px;" y="0" x="0" id="text-entity-issue-5f9caad7-8f1e-5d51-8ee5-025a68036f45-attr-5-name" class="er entityLabel">created</text><rect height="21" width="49.44877624511719" y="129" x="0" class="er attributeBoxEven"/><text transform="translate(5,139.5)" style="dominant-baseline: middle; font-size: 10.2px;" y="0" x="0" id="text-entity-issue-5f9caad7-8f1e-5d51-8ee5-025a68036f45-attr-6-type" class="er entityLabel">datetime</text><rect height="21" width="59.65373229980469" y="129" x="49.44877624511719" class="er attributeBoxEven"/><text transform="translate(54.44877624511719,139.5)" style="dominant-baseline: middle; font-size: 10.2px;" y="0" x="0" id="text-entity-issue-5f9caad7-8f1e-5d51-8ee5-025a68036f45-attr-6-name" class="er entityLabel">modified</text><rect height="21" width="49.44877624511719" y="150" x="0" class="er attributeBoxOdd"/><text transform="translate(5,160.5)" style="dominant-baseline: middle; font-size: 10.2px;" y="0" x="0" id="text-entity-issue-5f9caad7-8f1e-5d51-8ee5-025a68036f45-attr-7-type" class="er entityLabel">datetime</text><rect height="21" width="59.65373229980469" y="150" x="49.44877624511719" class="er attributeBoxOdd"/><text transform="translate(54.44877624511719,160.5)" style="dominant-baseline: middle; font-size: 10.2px;" y="0" x="0" id="text-entity-issue-5f9caad7-8f1e-5d51-8ee5-025a68036f45-attr-7-name" class="er entityLabel">closed</text></g><g transform="translate(433.1737594604492,557 )" id="entity-label-565671b9-3f9b-5126-88ae-519882a9e956"><rect height="45" width="100" y="0" x="0" class="er entityBox"/><text transform="translate(50,12)" style="dominant-baseline: middle; text-anchor: middle; font-size: 12px;" y="0" x="0" id="text-entity-label-565671b9-3f9b-5126-88ae-519882a9e956" class="er entityLabel">label</text><rect height="21" width="52.331390380859375" y="24" x="0" class="er attributeBoxOdd"/><text transform="translate(5,34.5)" style="dominant-baseline: middle; font-size: 10.2px;" y="0" x="0" id="text-entity-label-565671b9-3f9b-5126-88ae-519882a9e956-attr-1-type" class="er entityLabel">string</text><rect height="21" width="47.668609619140625" y="24" x="52.331390380859375" class="er attributeBoxOdd"/><text transform="translate(57.331390380859375,34.5)" style="dominant-baseline: middle; font-size: 10.2px;" y="0" x="0" id="text-entity-label-565671b9-3f9b-5126-88ae-519882a9e956-attr-1-name" class="er entityLabel">type</text></g><g transform="translate(283.1737594604492,370 )" id="entity-comment-7f0f0a76-83e4-502b-856c-6daf5a42833b"><rect height="66" width="100" y="0" x="0" class="er entityBox"/><text transform="translate(50,12)" style="dominant-baseline: middle; text-anchor: middle; font-size: 12px;" y="0" x="0" id="text-entity-comment-7f0f0a76-83e4-502b-856c-6daf5a42833b" class="er entityLabel">comment</text><rect height="21" width="52.55000305175781" y="24" x="0" class="er attributeBoxOdd"/><text transform="translate(5,34.5)" style="dominant-baseline: middle; font-size: 10.2px;" y="0" x="0" id="text-entity-comment-7f0f0a76-83e4-502b-856c-6daf5a42833b-attr-1-type" class="er entityLabel">datetime</text><rect height="21" width="47.44999694824219" y="24" x="52.55000305175781" class="er attributeBoxOdd"/><text transform="translate(57.55000305175781,34.5)" style="dominant-baseline: middle; font-size: 10.2px;" y="0" x="0" id="text-entity-comment-7f0f0a76-83e4-502b-856c-6daf5a42833b-attr-1-name" class="er entityLabel">created</text><rect height="21" width="52.55000305175781" y="45" x="0" class="er attributeBoxEven"/><text transform="translate(5,55.5)" style="dominant-baseline: middle; font-size: 10.2px;" y="0" x="0" id="text-entity-comment-7f0f0a76-83e4-502b-856c-6daf5a42833b-attr-2-type" class="er entityLabel">string</text><rect height="21" width="47.44999694824219" y="45" x="52.55000305175781" class="er attributeBoxEven"/><text transform="translate(57.55000305175781,55.5)" style="dominant-baseline: middle; font-size: 10.2px;" y="0" x="0" id="text-entity-comment-7f0f0a76-83e4-502b-856c-6daf5a42833b-attr-2-name" class="er entityLabel">text</text></g><g transform="translate(358.1737594604492,195 )" id="entity-dataloader-f5022d7c-d990-537b-a36d-6eb9156f43e9"><rect height="75" width="100" y="0" x="0" class="er entityBox"/><text transform="translate(50,37.5)" style="dominant-baseline: middle; text-anchor: middle; font-size: 12px;" y="0" x="0" id="text-entity-dataloader-f5022d7c-d990-537b-a36d-6eb9156f43e9" class="er entityLabel">data_loader</text></g><g transform="translate(461.5824432373047,20 )" id="entity-analysis-8fee3d6f-7417-5e1a-8be6-9c3174e43a60"><rect height="75" width="100" y="0" x="0" class="er entityBox"/><text transform="translate(50,37.5)" style="dominant-baseline: middle; text-anchor: middle; font-size: 12px;" y="0" x="0" id="text-entity-analysis-8fee3d6f-7417-5e1a-8be6-9c3174e43a60" class="er entityLabel">analysis</text></g><g transform="translate(558.1737594604492,199.5 )" id="entity-config-12e54f4a-f571-5d97-a04f-a5dd5dbabb21"><rect height="66" width="113.63473510742188" y="0" x="0" class="er entityBox"/><text transform="translate(56.81736755371094,12)" style="dominant-baseline: middle; text-anchor: middle; font-size: 12px;" y="0" x="0" id="text-entity-config-12e54f4a-f571-5d97-a04f-a5dd5dbabb21" class="er entityLabel">config</text><rect height="21" width="35.26939392089844" y="24" x="0" class="er attributeBoxOdd"/><text transform="translate(5,34.5)" style="dominant-baseline: middle; font-size: 10.2px;" y="0" x="0" id="text-entity-config-12e54f4a-f571-5d97-a04f-a5dd5dbabb21-attr-1-type" class="er entityLabel">string</text><rect height="21" width="78.36534118652344" y="24" x="35.26939392089844" class="er attributeBoxOdd"/><text transform="translate(40.26939392089844,34.5)" style="dominant-baseline: middle; font-size: 10.2px;" y="0" x="0" id="text-entity-config-12e54f4a-f571-5d97-a04f-a5dd5dbabb21-attr-1-name" class="er entityLabel">filepath</text><rect height="21" width="35.26939392089844" y="45" x="0" class="er attributeBoxEven"/><text transform="translate(5,55.5)" style="dominant-baseline: middle; font-size: 10.2px;" y="0" x="0" id="text-entity-config-12e54f4a-f571-5d97-a04f-a5dd5dbabb21-attr-2-type" class="er entityLabel">int</text><rect height="21" width="78.36534118652344" y="45" x="35.26939392089844" class="er attributeBoxEven"/><text transform="translate(40.26939392089844,55.5)" style="dominant-baseline: middle; font-size: 10.2px;" y="0" x="0" id="text-entity-config-12e54f4a-f571-5d97-a04f-a5dd5dbabb21-attr-2-name" class="er entityLabel">analysis_mode</text></g><rect height="14" width="48.361328125" y="716.7785034179688" x="202.34523010253906" class="er relationshipLabelBox"/><text style="text-anchor: middle; dominant-baseline: middle; font-size: 12px;" y="723.7785034179688" x="226.52589416503906" id="rel11" class="er relationshipLabel">assigned</text><rect height="14" width="48.361328125" y="655.8713989257812" x="457.75274658203125" class="er relationshipLabelBox"/><text style="text-anchor: middle; dominant-baseline: middle; font-size: 12px;" y="662.8713989257812" x="481.93341064453125" id="rel12" class="er relationshipLabel">assigned</text><rect height="14" width="36.35546875" y="528.7815551757812" x="610.6107177734375" class="er relationshipLabelBox"/><text style="text-anchor: middle; dominant-baseline: middle; font-size: 12px;" y="535.7815551757812" x="628.7884521484375" id="rel13" class="er relationshipLabel">posted</text><rect height="14" width="36.35546875" y="452.94622802734375" x="149.07742309570312" class="er relationshipLabelBox"/><text style="text-anchor: middle; dominant-baseline: middle; font-size: 12px;" y="459.94622802734375" x="167.25515747070312" id="rel14" class="er relationshipLabel">posted</text><rect height="14" width="30.03125" y="346.0483703613281" x="174.73289489746094" class="er relationshipLabelBox"/><text style="text-anchor: middle; dominant-baseline: middle; font-size: 12px;" y="353.0483703613281" x="189.74851989746094" id="rel15" class="er relationshipLabel">reads</text><rect height="14" width="30.03125" y="474.6677551269531" x="718.1583862304688" class="er relationshipLabelBox"/><text style="text-anchor: middle; dominant-baseline: middle; font-size: 12px;" y="481.6677551269531" x="733.1740112304688" id="rel16" class="er relationshipLabel">reads</text><rect height="14" width="30.03125" y="308.1256408691406" x="327.584716796875" class="er relationshipLabelBox"/><text style="text-anchor: middle; dominant-baseline: middle; font-size: 12px;" y="315.1256408691406" x="342.600341796875" id="rel17" class="er relationshipLabel">reads</text><rect height="14" width="30.03125" y="400.67657470703125" x="468.15838623046875" class="er relationshipLabelBox"/><text style="text-anchor: middle; dominant-baseline: middle; font-size: 12px;" y="407.67657470703125" x="483.17401123046875" id="rel18" class="er relationshipLabel">reads</text><rect height="14" width="25.359375" y="130.226318359375" x="410.5998229980469" class="er relationshipLabelBox"/><text style="text-anchor: middle; dominant-baseline: middle; font-size: 12px;" y="137.226318359375" x="423.2795104980469" id="rel19" class="er relationshipLabel">uses</text><rect height="14" width="25.359375" y="132.13015747070312" x="588.2491455078125" class="er relationshipLabelBox"/><text style="text-anchor: middle; dominant-baseline: middle; font-size: 12px;" y="139.13015747070312" x="600.9288330078125" id="rel20" class="er relationshipLabel">uses</text></svg>